# xmcd CD database file
#
# Track frame offsets:
#	150
#	13250
#	31773
#	48731
#	67698
#	77444
#	90479
#	103547
#	118198
#	133146
#	146031
#	158212
#	170366
#	184959
#	199601
#	213329
#	225687
#	237959
#	251064
#	263564
#	274770
#	288300
#
# Disc length: 3999 seconds
#
# Revision: 0
# Processed by: cddbd v1.5.2PL0 Copyright (c) Steve Scherf et al.
# Submitted via: CDex 1.70beta2
#
DISCID=350f9d16
DTITLE=Various Artist - Jazz Roads CD381 - Bebop - White Bebop Boys Vol.5 (1949-50)
DYEAR=1900
DGENRE=Jazz
TTITLE0=Lee Konitz Quintet - Tautology
TTITLE1=Lee Konitz Quintet - Sound Lee
TTITLE2=Stan Getz and Kai Winding Quintet - Always
TTITLE3=Stan Getz and Kai Winding Quintet - Sweet Miss
TTITLE4=Stan Getz Quartet - Long Island Sound
TTITLE5=Stan Getz Quartet - There's A Small Hotel
TTITLE6=Stan Getz Quartet - Too Marvelous For Words
TTITLE7=Stan Getz Quartet - I've Got You Under My Skin
TTITLE8=Stan Getz Quartet - What's New
TTITLE9=Stan Getz Quartet - You Stepped Out Of A Dream
TTITLE10=Stan Getz Quartet - My Old Flame
TTITLE11=Stan Getz Quartet - My Old Flame
TTITLE12=Stan Getz Quartet - The Lady In Red
TTITLE13=Stan Getz Quartet - The Lady In Red
TTITLE14=Stan Getz Quartet - Wrap Your Troubles In Dreams
TTITLE15=Stan Getz Quartet - On The Alamo
TTITLE16=Stan Getz Quartet - On The Alamo
TTITLE17=Stan Getz Quartet - Gone With The Wind
TTITLE18=Stan Getz Quartet - Yesterdays
TTITLE19=Stan Getz Quartet - Sweetie Pie
TTITLE20=Stan Getz Quartet - You Go To My Head
TTITLE21=Stan Getz Quartet - Hershey Bar
EXTD=
EXTT0=
EXTT1=
EXTT2=
EXTT3=
EXTT4=
EXTT5=
EXTT6=
EXTT7=
EXTT8=
EXTT9=
EXTT10=
EXTT11=
EXTT12=
EXTT13=
EXTT14=
EXTT15=
EXTT16=
EXTT17=
EXTT18=
EXTT19=
EXTT20=
EXTT21=
PLAYORDER=
